<svg width="12" height="7" viewBox="0 0 12 7" fill="none" xmlns="http://www.w3.org/2000/svg">
<path d="M5.30091 6.30004L0.467578 1.46671C0.400912 1.40004 0.351134 1.32804 0.318245 1.25071C0.285356 1.17337 0.268467 1.08982 0.267578 1.00004C0.267578 0.822263 0.328911 0.666707 0.451578 0.533374C0.574245 0.40004 0.735134 0.333374 0.934245 0.333374H11.0676C11.2676 0.333374 11.4289 0.40004 11.5516 0.533374C11.6742 0.666707 11.7351 0.822263 11.7342 1.00004C11.7342 1.04449 11.6676 1.20004 11.5342 1.46671L6.70091 6.30004C6.5898 6.41115 6.47869 6.48893 6.36758 6.53337C6.25647 6.57782 6.13425 6.60004 6.00091 6.60004C5.86758 6.60004 5.74536 6.57782 5.63425 6.53337C5.52314 6.48893 5.41202 6.41115 5.30091 6.30004Z" fill="black"/>
</svg>
