<svg width="186" height="50" viewBox="0 0 186 50" fill="none" xmlns="http://www.w3.org/2000/svg">
<path d="M0 24.9701C0.0148848 11.1559 11.1934 -0.0149193 24.9469 1.49568e-05C38.7005 0.0149492 49.8492 11.2306 49.8343 25.0299C49.8194 38.8292 38.6707 50 24.9171 50C11.1487 49.9851 0 38.7844 0 24.9701ZM24.4111 33.5275C22.476 33.5872 20.541 33.408 18.6506 33.0048C17.2515 32.721 16.0756 31.7802 15.4951 30.466C14.9294 29.1667 14.6615 27.1505 14.6764 24.4325C14.6913 23.0138 14.7806 21.595 14.9443 20.1912C15.1081 18.8172 15.2718 17.6822 15.4206 16.7862L15.5844 15.905C15.5844 15.8752 15.5844 15.8602 15.5844 15.8304C15.5844 15.5765 15.4058 15.3674 15.1676 15.3226L11.9525 14.8148H11.9078C11.6697 14.8148 11.4762 14.9791 11.4166 15.2031C11.3571 15.4122 11.3273 15.5615 11.238 16.0544C11.0594 17.0102 10.8808 17.9361 10.7022 19.2802C10.5087 20.7437 10.3896 22.2222 10.3449 23.7007C10.2705 24.7312 10.2705 25.7617 10.3449 26.7921C10.4194 29.5251 10.8957 31.7204 11.7441 33.3483C12.5925 34.9761 14.0661 36.1559 16.1202 36.8728C18.1743 37.5896 21.0322 37.948 24.7087 37.9331H25.1702C28.8467 37.948 31.7046 37.6045 33.7587 36.8728C35.8128 36.1559 37.2715 34.9761 38.1348 33.3483C38.9981 31.7055 39.4596 29.5251 39.534 26.7921C39.6084 25.7617 39.6084 24.7312 39.534 23.7007C39.4893 22.2222 39.3703 20.7437 39.1768 19.2802C38.9833 17.9361 38.8195 17.0251 38.6409 16.0544C38.5516 15.5615 38.507 15.4122 38.4623 15.2031C38.4028 14.9791 38.2093 14.8148 37.9711 14.8148H37.8818L34.6667 15.3226C34.4285 15.3674 34.2499 15.5765 34.2499 15.8304C34.2499 15.8602 34.2499 15.8752 34.2499 15.905L34.4285 16.7862C34.5923 17.6822 34.756 18.8172 34.9197 20.1762C35.0835 21.5801 35.1728 22.9988 35.1876 24.4176C35.2174 27.1356 34.9346 29.1368 34.369 30.451C33.8034 31.7503 32.6423 32.6912 31.2581 32.9898C29.3677 33.3931 27.4327 33.5723 25.4976 33.5126L24.4111 33.5275Z" fill="#283A97"/>
<path d="M171.203 27.0459C171.203 22.0579 172.632 18.5483 178.378 18.5483C184.123 18.5483 185.552 22.0579 185.552 27.0459C185.552 32.034 184.123 35.5436 178.378 35.5436C172.632 35.5436 171.203 32.034 171.203 27.0459ZM181.905 27.0459C181.905 23.5812 181.459 21.5949 178.392 21.5949C175.326 21.5949 174.88 23.5812 174.88 27.0459C174.88 30.5107 175.341 32.497 178.392 32.497C181.444 32.497 181.905 30.4958 181.905 27.0459Z" fill="#283A97"/>
<path d="M71.7726 34.9015C71.8619 35.0509 72.0108 35.1405 72.1894 35.1405H73.529C73.797 35.1405 74.0054 34.9314 74.0054 34.6626V19.4147C74.0054 19.1458 73.797 18.9368 73.529 18.9368H70.8498C70.5819 18.9368 70.3735 19.1458 70.3735 19.4147V31.5114C69.2273 32.1536 67.9324 32.4822 66.6225 32.4523C64.9107 32.4523 64.0623 31.7056 64.0623 30.0479V19.4147C64.0623 19.1458 63.8539 18.9368 63.586 18.9368H60.9216C60.6537 18.9368 60.4453 19.1458 60.4453 19.4147V30.3764C60.4453 33.4828 61.904 35.5288 65.9973 35.5288C67.8728 35.5138 69.7037 34.9165 71.2368 33.8412L71.7131 34.9165L71.7726 34.9015Z" fill="#283A97"/>
<path d="M101.929 23.7007C101.929 20.6242 100.41 18.5483 96.5849 18.5483C94.7392 18.5483 92.9381 19.1158 91.405 20.1463C90.7203 19.1457 89.4253 18.5483 87.267 18.5483C85.5106 18.5782 83.7989 19.1756 82.3848 20.2359L81.9085 19.1606C81.8192 19.0113 81.6703 18.9068 81.4917 18.9068H80.1521C79.8842 18.9068 79.6758 19.1158 79.6758 19.3847V34.6326C79.6758 34.9014 79.8842 35.1105 80.1521 35.1105H82.8314C83.0993 35.1105 83.3077 34.9014 83.3077 34.6326V22.5657C84.3347 21.9534 85.5106 21.6248 86.7014 21.6248C88.1601 21.6248 88.9937 22.1624 88.9937 23.7156V34.6774C88.9937 34.9462 89.202 35.1553 89.47 35.1553H92.1492C92.4172 35.1553 92.6255 34.9462 92.6255 34.6774V22.5657C93.6377 21.9384 94.8285 21.6099 96.0193 21.6099C97.4482 21.6099 98.3115 22.1475 98.3115 23.7007V34.6624C98.3115 34.9313 98.5199 35.1403 98.7879 35.1403H101.467C101.735 35.1403 101.943 34.9313 101.943 34.6624L101.929 23.7007Z" fill="#283A97"/>
<path d="M110.204 33.856C111.723 34.976 113.553 35.5734 115.444 35.5436C120.162 35.5436 121.904 32.3625 121.904 27.0459C121.904 21.7293 120.162 18.5483 115.444 18.5483C113.911 18.5633 112.407 18.9964 111.112 19.8177V14.9193C111.112 14.6505 110.904 14.4414 110.636 14.4414H107.957C107.689 14.4414 107.48 14.6505 107.48 14.9193V34.6774C107.48 34.9462 107.689 35.1553 107.957 35.1553H109.296C109.475 35.1553 109.624 35.0657 109.713 34.9163L110.204 33.856ZM114.595 32.4522C113.375 32.4522 112.169 32.1385 111.112 31.5113V22.5657C112.169 21.9534 113.375 21.6248 114.595 21.6248C117.766 21.6248 118.242 24.0591 118.242 27.031C118.242 30.0029 117.766 32.4522 114.595 32.4522Z" fill="#283A97"/>
<path d="M135.285 21.7294C134.868 21.6697 134.452 21.6398 134.02 21.6547C132.576 21.595 131.147 21.9385 129.882 22.6254V34.6625C129.882 34.9313 129.674 35.1404 129.406 35.1404H126.726C126.458 35.1404 126.25 34.9313 126.25 34.6625V19.4146C126.25 19.1458 126.458 18.9367 126.726 18.9367H128.066C128.245 18.9367 128.393 19.0263 128.483 19.1756L128.959 20.2509C130.433 19.1308 132.234 18.5335 134.079 18.5633C134.496 18.5633 134.928 18.5932 135.345 18.6679C135.598 18.6679 135.791 19.0711 135.791 19.325V21.2664C135.791 21.5352 135.583 21.7443 135.315 21.7443H135.285" fill="#283A97"/>
<path d="M144.546 27.6583C142.953 27.8524 141.986 28.4647 141.986 30.1523C141.986 31.3918 142.522 32.5567 144.471 32.5567C145.707 32.5716 146.913 32.1983 147.925 31.4814V27.2849L144.546 27.6583ZM148.818 33.856C147.434 34.9462 145.722 35.5436 143.95 35.5436C139.783 35.5436 138.398 32.945 138.398 30.3464C138.398 26.8369 140.661 25.3584 144.308 25.0597L147.94 24.7759V23.9695C147.94 22.3118 147.166 21.6696 144.769 21.6696C143.266 21.6696 141.777 21.9235 140.363 22.4014C140.319 22.4163 140.259 22.4163 140.214 22.4014C139.946 22.4014 139.738 22.1923 139.738 21.9235V19.773C139.738 19.5639 139.857 19.3847 140.051 19.31C141.658 18.7724 143.34 18.5035 145.037 18.5035C150.336 18.5035 151.557 20.8333 151.557 24.2831V34.6326C151.557 34.9014 151.348 35.1105 151.08 35.1105H149.741C149.562 35.1105 149.413 35.0209 149.324 34.8715L148.818 33.856Z" fill="#283A97"/>
<path d="M167.244 31.81C167.289 31.81 167.348 31.81 167.393 31.81C167.661 31.81 167.869 32.0191 167.869 32.2879V34.4384C167.869 34.6326 167.75 34.8118 167.572 34.8865C166.247 35.3644 164.833 35.6033 163.419 35.5734C157.688 35.5734 155.932 32.1386 155.932 27.0758C155.932 22.0131 157.688 18.5782 163.419 18.5782C164.818 18.5484 166.232 18.7574 167.557 19.2353C167.735 19.31 167.854 19.4892 167.854 19.6834V21.8488C167.854 22.1177 167.646 22.3267 167.378 22.3267C167.319 22.3417 167.274 22.3417 167.214 22.3267C166.053 21.9534 164.833 21.7742 163.612 21.7891C160.471 21.7891 159.564 23.9396 159.564 27.0758C159.564 30.212 160.471 32.3626 163.612 32.3626C164.833 32.3775 166.053 32.1983 167.214 31.8249" fill="#283A97"/>
</svg>
